<svg xmlns="http://www.w3.org/2000/svg" width="60" height="44" viewBox="0 0 60 44" fill="none"><path d="M43.5 0.879999V1.78C41.22 1.96 39.9 2.86 38.7 5.86L23.28 43.24H21.3L3.84 5.26C2.64 2.68 1.74 2.14 -0.3 1.78V0.879999H21.36V1.78C18.3 2.02 16.44 2.5 16.44 4.12C16.44 5.02 16.74 5.92 17.34 7.36L27.12 30.46L36.12 8.08C36.72 6.46 37.14 5.2 37.14 4.18C37.14 2.26 34.44 1.96 31.02 1.78V0.879999H43.5ZM52.1236 22.12C49.9636 22.12 48.5236 23.41 48.5236 25.36C48.5236 30.19 59.5636 28.06 59.5636 36.1C59.5636 40.42 55.7836 43.3 51.0436 43.3C48.2836 43.3 45.6436 42.4 44.2336 41.29L43.9036 35.83H44.2336C44.9536 39.19 47.4736 42.82 51.1036 42.82C53.3536 42.82 55.0936 41.59 55.0936 39.37C55.0936 33.34 44.2336 35.98 44.2336 28.42C44.2336 24.25 47.8636 21.64 51.9436 21.64C54.3136 21.64 56.4136 22.3 58.0936 23.41L58.2136 28.3H57.9136C57.1636 24.7 55.0036 22.12 52.1236 22.12Z" fill="#E64632"/></svg>