<svg xmlns="http://www.w3.org/2000/svg" width="250" height="19" viewBox="0 0 250 19" fill="none"><path d="M6.48 18L0.36 1.2H3.816L8.472 14.688L13.152 1.2H16.584L10.464 18H6.48ZM18.6013 18V1.2H21.8413V18H18.6013ZM25.1404 18V1.2H31.4044C32.7644 1.2 33.8844 1.432 34.7644 1.896C35.6444 2.36 36.3004 2.984 36.7324 3.768C37.1644 4.536 37.3804 5.392 37.3804 6.336C37.3804 7.232 37.1724 8.072 36.7564 8.856C36.3404 9.624 35.6844 10.248 34.7884 10.728C33.9084 11.192 32.7724 11.424 31.3804 11.424H28.3804V18H25.1404ZM33.8524 18L30.3964 10.608H33.9004L37.5484 18H33.8524ZM28.3804 9.072H31.2124C32.1884 9.072 32.9084 8.832 33.3724 8.352C33.8364 7.872 34.0684 7.24 34.0684 6.456C34.0684 5.672 33.8364 5.056 33.3724 4.608C32.9244 4.144 32.2044 3.912 31.2124 3.912H28.3804V9.072ZM39.153 18L45.297 1.2H48.969L55.089 18H51.657L47.121 4.896L42.561 18H39.153ZM41.865 14.184L42.729 11.664H51.273L52.113 14.184H41.865ZM63.8717 18.288C62.1917 18.288 60.7437 17.928 59.5277 17.208C58.3277 16.472 57.3997 15.456 56.7437 14.16C56.1037 12.848 55.7837 11.336 55.7837 9.624C55.7837 7.912 56.1037 6.4 56.7437 5.088C57.3997 3.776 58.3277 2.752 59.5277 2.016C60.7437 1.28 62.1917 0.912 63.8717 0.912C65.9037 0.912 67.5677 1.416 68.8637 2.424C70.1597 3.432 70.9677 4.856 71.2877 6.696H67.7597C67.5517 5.8 67.1117 5.104 66.4397 4.608C65.7837 4.096 64.9197 3.84 63.8477 3.84C62.8557 3.84 61.9997 4.08 61.2797 4.56C60.5757 5.024 60.0317 5.688 59.6477 6.552C59.2637 7.4 59.0717 8.424 59.0717 9.624C59.0717 10.808 59.2637 11.832 59.6477 12.696C60.0317 13.56 60.5757 14.224 61.2797 14.688C61.9997 15.152 62.8557 15.384 63.8477 15.384C64.9197 15.384 65.7837 15.152 66.4397 14.688C67.0957 14.208 67.5277 13.544 67.7357 12.696H71.2877C70.9677 14.44 70.1597 15.808 68.8637 16.8C67.5677 17.792 65.9037 18.288 63.8717 18.288ZM83.6149 18V3.816H78.6949V1.2H91.7269V3.816H86.8309V18H83.6149ZM101.213 18.288C99.5807 18.288 98.1407 17.92 96.8927 17.184C95.6447 16.448 94.6687 15.432 93.9647 14.136C93.2607 12.824 92.9087 11.312 92.9087 9.6C92.9087 7.888 93.2607 6.384 93.9647 5.088C94.6687 3.776 95.6447 2.752 96.8927 2.016C98.1407 1.28 99.5807 0.912 101.213 0.912C102.861 0.912 104.309 1.28 105.557 2.016C106.805 2.752 107.773 3.776 108.461 5.088C109.165 6.384 109.517 7.888 109.517 9.6C109.517 11.312 109.165 12.824 108.461 14.136C107.773 15.432 106.805 16.448 105.557 17.184C104.309 17.92 102.861 18.288 101.213 18.288ZM101.213 15.384C102.237 15.384 103.117 15.152 103.853 14.688C104.605 14.208 105.189 13.536 105.605 12.672C106.021 11.808 106.229 10.784 106.229 9.6C106.229 8.4 106.021 7.376 105.605 6.528C105.189 5.664 104.605 5 103.853 4.536C103.117 4.072 102.237 3.84 101.213 3.84C100.205 3.84 99.3247 4.072 98.5727 4.536C97.8207 5 97.2367 5.664 96.8207 6.528C96.4047 7.376 96.1967 8.4 96.1967 9.6C96.1967 10.784 96.4047 11.808 96.8207 12.672C97.2367 13.536 97.8207 14.208 98.5727 14.688C99.3247 15.152 100.205 15.384 101.213 15.384ZM114.938 18L110.522 1.2H113.978L116.906 14.328L120.362 1.2H123.938L127.298 14.328L130.25 1.2H133.73L129.194 18H125.33L122.114 5.76L118.778 18H114.938ZM135.976 18V1.2H139.216L146.944 12.792V1.2H150.184V18H146.944L139.216 6.432V18H135.976ZM166.645 18.288C164.965 18.288 163.517 17.928 162.301 17.208C161.101 16.472 160.173 15.456 159.517 14.16C158.877 12.848 158.557 11.336 158.557 9.624C158.557 7.912 158.877 6.4 159.517 5.088C160.173 3.776 161.101 2.752 162.301 2.016C163.517 1.28 164.965 0.912 166.645 0.912C168.677 0.912 170.341 1.416 171.637 2.424C172.933 3.432 173.741 4.856 174.061 6.696H170.533C170.325 5.8 169.885 5.104 169.213 4.608C168.557 4.096 167.693 3.84 166.621 3.84C165.629 3.84 164.773 4.08 164.053 4.56C163.349 5.024 162.805 5.688 162.421 6.552C162.037 7.4 161.845 8.424 161.845 9.624C161.845 10.808 162.037 11.832 162.421 12.696C162.805 13.56 163.349 14.224 164.053 14.688C164.773 15.152 165.629 15.384 166.621 15.384C167.693 15.384 168.557 15.152 169.213 14.688C169.869 14.208 170.301 13.544 170.509 12.696H174.061C173.741 14.44 172.933 15.808 171.637 16.8C170.341 17.792 168.677 18.288 166.645 18.288ZM176.828 18V1.2H187.868V3.816H180.068V8.208H187.148V10.728H180.068V15.384H187.868V18H176.828ZM190.82 18V1.2H194.06L201.788 12.792V1.2H205.028V18H201.788L194.06 6.432V18H190.82ZM212.216 18V3.816H207.296V1.2H220.328V3.816H215.432V18H212.216ZM222.625 18V1.2H233.665V3.816H225.865V8.208H232.945V10.728H225.865V15.384H233.665V18H222.625ZM236.617 18V1.2H242.881C244.241 1.2 245.361 1.432 246.241 1.896C247.121 2.36 247.777 2.984 248.209 3.768C248.641 4.536 248.857 5.392 248.857 6.336C248.857 7.232 248.649 8.072 248.233 8.856C247.817 9.624 247.161 10.248 246.265 10.728C245.385 11.192 244.249 11.424 242.857 11.424H239.857V18H236.617ZM245.329 18L241.873 10.608H245.377L249.025 18H245.329ZM239.857 9.072H242.689C243.665 9.072 244.385 8.832 244.849 8.352C245.313 7.872 245.545 7.24 245.545 6.456C245.545 5.672 245.313 5.056 244.849 4.608C244.401 4.144 243.681 3.912 242.689 3.912H239.857V9.072Z" fill="white"/></svg>